PathFileType	4	(X/Y/Z)	Patient4_TMGait_0pt6_02_left_41.trc.trc
DataRate	CameraRate	NumFrames	NumMarkers	Units	OrigDataRate	OrigDataStartFrame	OrigNumFrames
83.832335329341	83.832335329341	4	33	mm	83.832335329341	106	       141
Frame#	Time	Sacral			L.Shoulder			Chest			R.Shoulder			Neck			R.ASIS			L.ASIS			R.Thigh.Superior			R.Thigh.Lateral			R.Thigh.Inferior			R.Patella			L.Thigh.Superior			L.Thigh.Lateral			L.Thigh.Inferior			L.Patella			L.Shank.Superior			L.Shank.Lateral			L.Shank.Inferior			R.Shank.Superior			R.Shank.Lateral			R.Shank.Inferior			R.Heel			R.Midfoot.Superior			R.Midfoot.Lateral			R.Toe			L.Heel			L.Midfoot.Lateral			L.Midfoot.Superior			L.Toe			L.Elbow			L.Wrist			R.Elbow			R.Wrist			
		X1	Y1	Z1	X2	Y2	Z2	X3	Y3	Z3	X4	Y4	Z4	X5	Y5	Z5	X6	Y6	Z6	X7	Y7	Z7	X8	Y8	Z8	X9	Y9	Z9	X10	Y10	Z10	X11	Y11	Z11	X12	Y12	Z12	X13	Y13	Z13	X14	Y14	Z14	X15	Y15	Z15	X16	Y16	Z16	X17	Y17	Z17	X18	Y18	Z18	X19	Y19	Z19	X20	Y20	Z20	X21	Y21	Z21	X22	Y22	Z22	X23	Y23	Z23	X24	Y24	Z24	X25	Y25	Z25	X26	Y26	Z26	X27	Y27	Z27	X28	Y28	Z28	X29	Y29	Z29	X30	Y30	Z30	X31	Y31	Z31	X32	Y32	Z32	X33	Y33	Z33	

106	51.352500000000	854.609637690318	1016.738372633918	546.994550400708	1042.689343268384	1425.615536351935	338.373302963655	1154.626178733115	1355.158614942922	492.149852339579	1092.702355509768	1445.500441796500	666.432278686689	1060.465154092604	1492.713384317096	485.072280758725	1087.408103503860	945.015331942554	648.074245281572	1052.768092859480	961.623166372670	375.548666476832	1113.422899672153	738.057653810263	614.848805078933	1026.922377448501	635.352840708689	677.597168435414	1092.566608153070	578.850247019539	591.346164968692	1085.728474440398	493.438226394330	594.802508200138	1148.417828886575	803.389398731069	409.971063272065	1124.271398231370	675.388351279438	326.694302883665	1234.483608656896	626.298328093192	390.677783541808	1261.987496350974	539.872692302265	381.101102271218	1208.330944745439	463.981955574814	373.034940355919	1078.244667082186	392.806036879130	327.764172946848	1097.564825450920	263.236969813046	379.721887691673	1058.683632607411	405.893672832562	602.774279464720	989.972044218717	301.570028439761	665.503043984314	1028.260803714602	207.840580371103	598.350071257057	892.340277235485	43.381986433107	568.336726721991	1064.229582017707	97.310437805542	601.735698138487	976.415586866872	36.935611961689	642.513305533448	1184.936360931856	43.029538822625	628.441373123620	928.463501867804	161.533613631277	422.674891391958	990.461461557420	125.481759644618	341.426059953029	1092.254385657293	153.800035745633	358.742304915565	1188.394257633849	57.875162865552	330.544576322524	971.096910811860	1067.350043088759	259.278571065372	993.197024087009	808.680192751871	251.911527045595	1189.395441904084	1124.861547072003	807.057377526762	1415.443980587099	1031.015954802906	722.549202260624	
107	51.364428571429	853.844403240398	1017.288737958476	547.356809715001	1042.947544229576	1425.189070719103	338.039542823583	1155.167285575262	1354.609518886146	491.520023185166	1094.136798247551	1445.419015671504	665.856449167487	1061.215388337672	1492.437473136372	484.653612801591	1086.655291886228	944.516374430720	647.742409185004	1051.461340734813	961.670356985217	375.240639054631	1110.625898734745	737.209849630854	614.234740689618	1023.589707756042	635.175540413867	677.560707972370	1088.316789767693	578.063075335561	591.135108585981	1080.727043086919	492.860191138839	594.747841656135	1147.283153342014	804.979848300841	409.727972678547	1124.621822730336	676.827095220864	326.127946439244	1234.997003058152	629.028994109996	390.616164672044	1264.248796401977	544.033447901898	380.715202931391	1214.127165648264	467.113651973809	372.212345491370	1088.335427308519	388.773975797442	327.007767948183	1115.637925507220	260.083638777622	378.288327410872	1053.281297817188	405.487068050488	602.741790006416	984.118069380808	301.491722172419	665.517231120208	1021.766305049736	207.582263425754	598.331920272237	885.172465751745	43.386887373591	568.440363706005	1057.029178850800	97.263891123280	601.783753470284	969.212801718891	36.921329366962	642.575473666581	1177.719917419024	42.912233068746	628.518439985663	953.419579748156	147.196751680023	421.776855382958	1016.987006172537	116.391565171757	339.588419241971	1116.893296592423	151.064460903514	356.499538417170	1219.001996588779	62.058508998720	326.368250592551	965.402925574497	1068.095397823907	259.347368539174	975.300747736693	808.777714072176	253.235236544221	1196.967951881990	1127.287203022709	804.890304814066	1426.968047842787	1050.111202297235	715.856249926644	
108	51.376357142857	853.168491949190	1017.724860812233	547.526639904846	1043.350934458284	1424.746255541444	337.623301252107	1155.784965056387	1353.920535800160	490.799495847974	1095.599267007064	1445.118236129689	665.214558521238	1062.094395188073	1492.061310165099	484.195538046131	1085.929328289897	943.968016494792	647.264605622655	1050.267723183777	961.515701359284	374.754872891709	1107.887686355952	736.326353731097	613.676295177959	1020.231559783346	634.958390424885	677.486188605391	1084.110348790651	577.236199565131	590.962395904260	1075.748750813836	492.258248165536	594.706707664418	1145.941604032131	806.041772182835	409.352632730445	1124.555854304895	677.756616578295	325.468881458126	1234.932525807806	631.058619542442	390.539096311711	1265.818683538497	547.613630607513	380.385667076656	1219.295684376727	469.884937697647	371.513153004396	1098.434554544016	384.562261716621	325.953604595416	1133.449135619511	257.252939033180	376.875751436357	1047.886652339274	405.054188758038	602.703380163467	978.243545714056	301.396729888438	665.500514038593	1015.263302683737	207.311859830612	598.309464938808	878.005144940206	43.392712231231	568.540977761087	1049.828567331763	97.212660487969	601.828116114696	962.009935122528	36.906953521291	642.633236734173	1170.502996502074	42.792807219776	628.596837624675	978.655604933582	133.656977228891	420.344304446685	1043.786818017725	108.102066418285	337.571619853584	1141.310829364648	148.973438220642	354.478474593900	1248.995009597564	67.164930953926	323.039368449249	959.199261414220	1069.180217332008	258.982623072947	959.050922369961	809.834450490941	254.583313147053	1204.124195891382	1129.426346628082	802.480728588592	1436.866512976447	1069.091693636149	709.285415855488	
109	51.388285714286	852.596719462563	1018.045748954378	547.487339367169	1043.881388419285	1424.301719448377	337.121428489243	1156.463651004499	1353.110838118295	489.982632687617	1097.069442732385	1444.610177237255	664.501626978270	1063.090378048398	1491.597403025878	483.692047662215	1085.246892419312	943.396918633106	646.650707583489	1049.215311805599	961.166348531260	374.089980650904	1105.214513983634	735.414907297589	613.185534780194	1016.837954397388	634.711962783460	677.369356051338	1079.946982706447	576.375776370293	590.834786483102	1070.791715854981	491.634462440881	594.679131063205	1144.443731217494	806.605493518979	408.881378379209	1124.129582333771	678.195506938162	324.726769374861	1234.370540465780	632.405217104918	390.421247240424	1266.772366816731	550.605643244554	380.125073382144	1223.849499748375	472.278863721420	370.973225742097	1108.489989188212	380.296010987983	324.594515313544	1150.754479779572	254.835078448669	375.529539479095	1042.491573579754	404.596475572198	602.652827213343	972.339432080184	301.293693279530	665.452611916776	1008.749476963873	207.035091367780	598.281943817629	870.832565209479	43.400219288228	568.631346325515	1042.627782265398	97.159346286131	601.868730329346	954.805885476595	36.894120507004	642.685996155084	1163.287408688341	42.677320750965	628.675860453666	1003.738148674122	121.196749123261	418.350961528059	1070.486848640790	100.780462199005	335.420865372509	1165.167527985844	147.597199814814	352.763582449610	1277.975687821050	73.136345379910	320.793651946475	952.580286819415	1070.618187982931	258.262139215748	944.402651731537	811.600206911204	255.936766736654	1210.890170717624	1131.273208562214	799.842632350155	1445.178168098151	1087.761148997016	702.899103999494	
